<svg id="Layer_3" enable-background="new 0 0 64 64" height="512" viewBox="0 0 64 64" width="512" xmlns="http://www.w3.org/2000/svg"><path d="m62 36h-60v-13l14-4 8.636-13.346c1.474-2.278 4.003-3.654 6.716-3.654h16.29c3.242 0 6.163 1.956 7.397 4.954l4.961 12.046h2" fill="#2b74ca"/><path d="m19 30c17.121 0 31-9.402 31-21 0-2.438-.62-4.777-1.748-6.954-.203-.016-.403-.046-.61-.046h-16.29c-2.714 0-5.242 1.376-6.717 3.654l-8.635 13.346-14 4v3.558c4.882 2.174 10.721 3.442 17 3.442z" fill="#3d98f7"/><path d="m53 60.067c.395.219.782.454 1.16.706l.68.453c.756.505 1.645.774 2.554.774 2.544 0 4.606-2.062 4.606-4.606 0-.909-.269-1.798-.773-2.555l-.73-1.096c-1.628-2.44-2.497-5.309-2.497-8.243 0-2.934.869-5.803 2.496-8.244l.73-1.096c.505-.756.774-1.645.774-2.554 0-2.544-2.062-4.606-4.606-4.606-.909 0-1.798.269-2.555.774l-.68.453c-2.711 1.808-5.899 2.773-9.159 2.773-3.26 0-6.448-.965-9.16-2.773l-.68-.453c-.756-.505-1.645-.774-2.554-.774-2.544 0-4.606 2.062-4.606 4.606 0 .909.269 1.798.774 2.555l.73 1.096c1.627 2.44 2.496 5.309 2.496 8.243 0 2.934-.869 5.803-2.496 8.244l-.73 1.096c-.505.756-.774 1.645-.774 2.554 0 2.544 2.062 4.606 4.606 4.606.909 0 1.798-.269 2.555-.773l.68-.453c1.427-.951 2.985-1.669 4.617-2.136" fill="#f5cf88"/><path d="m35.84 30.227-.68-.453c-.756-.505-1.645-.774-2.554-.774-2.544 0-4.606 2.062-4.606 4.606 0 .909.269 1.798.773 2.555l.73 1.096c1.628 2.44 2.497 5.309 2.497 8.243s-.869 5.803-2.496 8.244l-.159.239c13.139-.345 23.655-8.709 23.655-18.983 0-1.307-.171-2.583-.495-3.816-2.317 1.183-4.885 1.816-7.505 1.816-3.26 0-6.448-.965-9.16-2.773z" fill="#fadfb2"/><path d="m53 63v-5l2-2v-11c0-1.105-.895-2-2-2-1.105 0-2 .895-2 2v-4c0-1.105-.895-2-2-2-1.105 0-2 .895-2 2v-2c0-1.105-.895-2-2-2-1.105 0-2 .895-2 2v2c0-1.105-.895-2-2-2-1.105 0-2 .895-2 2v10c0-1.105-.895-2-2-2-1.105 0-2 .895-2 2v4l6 4v4" fill="#efbe9a"/><path d="m50.986 8.564 4.014 10.436h-33l6.829-11.096c.728-1.183 2.017-1.904 3.406-1.904h15.018c1.655 0 3.139 1.019 3.733 2.564z" fill="#c7e2fc"/><path d="m28.5 16c10.75 0 19.551-4.24 20.414-9.632-.511-.234-1.074-.368-1.661-.368h-15.018c-1.389 0-2.679.721-3.407 1.904l-4.822 7.835c1.449.166 2.948.261 4.494.261z" fill="#ebf7fe"/><path d="m6 28v-6.143l-4 1.143v5z" fill="#f9d18b"/><circle cx="16" cy="36" fill="#4d5d7a" r="8"/><circle cx="16" cy="36" fill="#8892a0" r="4"/><g fill="#8bd2f5"><path d="m14 57c2.761 0 5 2.239 5 5 0-2.761 2.239-5 5-5-2.761 0-5-2.239-5-5 0 2.761-2.239 5-5 5z"/><path d="m2 50c2.761 0 5 2.239 5 5 0-2.761 2.239-5 5-5-2.761 0-5-2.239-5-5 0 2.761-2.239 5-5 5z"/><path d="m2 7c2.761 0 5 2.239 5 5 0-2.761 2.239-5 5-5-2.761 0-5-2.239-5-5 0 2.761-2.239 5-5 5z"/></g><path d="m42 63h-2v-3.465l-5.555-3.703c-.278-.186-.445-.498-.445-.832v-4c0-1.654 1.346-3 3-3s3 1.346 3 3v3h-2v-3c0-.551-.448-1-1-1s-1 .449-1 1v3.465l5.555 3.703c.278.186.445.498.445.832z"/><path d="m40 51h-2v-10c0-1.654 1.346-3 3-3s3 1.346 3 3v7h-2v-7c0-.551-.448-1-1-1s-1 .449-1 1z"/><path d="m48 43h-2v-4c0-.551-.448-1-1-1s-1 .449-1 1v4h-2v-4c0-1.654 1.346-3 3-3s3 1.346 3 3z"/><path d="m48 48h-2v-7c0-1.654 1.346-3 3-3s3 1.346 3 3v4h-2v-4c0-.551-.448-1-1-1s-1 .449-1 1z"/><path d="m54 63h-2v-5c0-.265.105-.52.293-.707l1.707-1.707v-10.586c0-.551-.448-1-1-1s-1 .449-1 1v3h-2v-3c0-1.654 1.346-3 3-3s3 1.346 3 3v11c0 .265-.105.52-.293.707l-1.707 1.707z"/><path d="m57.395 63c-1.11 0-2.186-.326-3.109-.941l-.68-.453c-.354-.237-.718-.458-1.09-.663l.969-1.75c.419.232.829.482 1.23.749l.68.453c.595.396 1.286.605 2 .605 1.988 0 3.605-1.617 3.605-3.605 0-.714-.209-1.406-.605-2l-.73-1.096c-1.744-2.614-2.665-5.656-2.665-8.799s.921-6.185 2.664-8.799l.73-1.096c.396-.594.605-1.286.605-2 .001-1.988-1.616-3.605-3.604-3.605-.714 0-1.405.209-2 .605l-.68.453c-2.887 1.925-6.246 2.942-9.715 2.942s-6.828-1.017-9.715-2.941l-.68-.453c-.595-.396-1.286-.605-2-.605-1.988-.001-3.605 1.616-3.605 3.604 0 .714.209 1.406.605 2l.73 1.096c1.744 2.614 2.665 5.656 2.665 8.799s-.921 6.185-2.664 8.799l-.73 1.096c-.396.594-.605 1.286-.605 2-.001 1.988 1.616 3.605 3.604 3.605.714 0 1.405-.209 2-.605l.68-.453c1.508-1.005 3.154-1.767 4.896-2.266l.551 1.923c-1.542.441-3.002 1.117-4.337 2.007l-.68.453c-.924.615-1.999.941-3.11.941-3.09 0-5.605-2.515-5.605-5.605 0-1.11.325-2.185.941-3.109l.73-1.096c1.524-2.285 2.329-4.944 2.329-7.69s-.805-5.405-2.328-7.689l-.73-1.096c-.616-.924-.941-2-.941-3.109-.001-3.091 2.514-5.606 5.604-5.606 1.11 0 2.186.326 3.109.941l.68.453c2.557 1.705 5.533 2.606 8.606 2.606s6.049-.901 8.605-2.605l.68-.453c.924-.616 1.999-.942 3.11-.942 3.09 0 5.605 2.515 5.605 5.605 0 1.11-.325 2.185-.941 3.109l-.73 1.096c-1.524 2.285-2.329 4.944-2.329 7.69s.805 5.405 2.328 7.689l.73 1.096c.616.924.941 2 .941 3.109.001 3.091-2.514 5.606-5.604 5.606z"/><path d="m16 45c-4.963 0-9-4.038-9-9s4.037-9 9-9 9 4.038 9 9-4.037 9-9 9zm0-16c-3.859 0-7 3.14-7 7s3.141 7 7 7 7-3.14 7-7-3.141-7-7-7z"/><path d="m8 37h-6c-.553 0-1-.448-1-1v-13c0-.446.296-.839.726-.961l13.639-3.897 8.431-13.032c1.666-2.573 4.491-4.11 7.557-4.11h16.29c3.661 0 6.928 2.188 8.322 5.573l4.705 11.427h2.33v2h-3c-.405 0-.771-.245-.925-.619l-4.96-12.046c-1.084-2.633-3.625-4.335-6.472-4.335h-16.29c-2.385 0-4.582 1.195-5.877 3.197l-8.636 13.346c-.132.203-.332.352-.565.418l-13.275 3.793v11.246h5z"/><path d="m16 41c-2.757 0-5-2.243-5-5s2.243-5 5-5 5 2.243 5 5-2.243 5-5 5zm0-8c-1.654 0-3 1.346-3 3s1.346 3 3 3 3-1.346 3-3-1.346-3-3-3z"/><path d="m24 35h5v2h-5z"/><path d="m6 29h-4v-2h3v-5h2v6c0 .552-.447 1-1 1z"/><path d="m55 20h-33c-.362 0-.696-.196-.873-.512s-.169-.703.021-1.012l6.829-11.096c.918-1.49 2.509-2.38 4.258-2.38h15.018c2.053 0 3.929 1.288 4.667 3.205l4.014 10.436c.118.308.077.653-.109.925-.187.272-.496.434-.825.434zm-31.211-2h29.755l-3.491-9.077c-.443-1.15-1.569-1.923-2.8-1.923h-15.018c-1.05 0-2.005.534-2.556 1.428z"/><path d="m38 6h2v13h-2z"/><path d="m36 22h4v2h-4z"/><path d="m52 22h4v2h-4z"/><path d="m19 63c-.553 0-1-.448-1-1 0-2.206-1.794-4-4-4-.553 0-1-.448-1-1s.447-1 1-1c2.206 0 4-1.794 4-4 0-.552.447-1 1-1s1 .448 1 1c0 2.206 1.794 4 4 4 .553 0 1 .448 1 1s-.447 1-1 1c-2.206 0-4 1.794-4 4 0 .552-.447 1-1 1zm-1.687-6c.668.444 1.242 1.019 1.687 1.687.444-.668 1.019-1.242 1.687-1.687-.668-.444-1.242-1.019-1.687-1.687-.444.668-1.019 1.243-1.687 1.687z"/><path d="m7 56c-.553 0-1-.448-1-1 0-2.206-1.794-4-4-4-.553 0-1-.448-1-1s.447-1 1-1c2.206 0 4-1.794 4-4 0-.552.447-1 1-1s1 .448 1 1c0 2.206 1.794 4 4 4 .553 0 1 .448 1 1s-.447 1-1 1c-2.206 0-4 1.794-4 4 0 .552-.447 1-1 1zm-1.687-6c.668.444 1.243 1.019 1.687 1.687.444-.668 1.019-1.243 1.687-1.687-.668-.444-1.243-1.019-1.687-1.687-.444.668-1.019 1.243-1.687 1.687z"/><path d="m7 13c-.553 0-1-.448-1-1 0-2.206-1.794-4-4-4-.553 0-1-.448-1-1s.447-1 1-1c2.206 0 4-1.794 4-4 0-.552.447-1 1-1s1 .448 1 1c0 2.206 1.794 4 4 4 .553 0 1 .448 1 1s-.447 1-1 1c-2.206 0-4 1.794-4 4 0 .552-.447 1-1 1zm-1.687-6c.668.444 1.243 1.019 1.687 1.687.444-.668 1.019-1.243 1.687-1.687-.668-.444-1.243-1.019-1.687-1.687-.444.668-1.019 1.243-1.687 1.687z"/></svg>