<svg id="Layer_3" enable-background="new 0 0 64 64" height="512" viewBox="0 0 64 64" width="512" xmlns="http://www.w3.org/2000/svg"><g><path d="m53 62h-42c-1.105 0-2-.895-2-2v-56c0-1.105.895-2 2-2h42c1.105 0 2 .895 2 2v56c0 1.105-.895 2-2 2z" fill="#a8b0bc"/><circle cx="32" cy="27" fill="#758190" r="18"/><path d="m32 9c-9.941 0-18 8.059-18 18 0 5.215 2.231 9.898 5.776 13.186 11.446-5.024 19.743-15.891 21.104-28.831-2.622-1.492-5.648-2.355-8.88-2.355z" fill="#8892a0"/><path d="m19 2h26v4h-26z" fill="#c1c8d1"/><path d="m19 2h-8c-1.105 0-2 .895-2 2v2h10z" fill="#a8b0bc"/><path d="m19 6h-10v4h8c1.105 0 2-.895 2-2z" fill="#e7e4dd"/><path d="m55 10h-8c-1.105 0-2-.895-2-2v-6h8c1.105 0 2 .895 2 2z" fill="#758190"/><path d="m46 58h-28c-2.761 0-5-2.239-5-5 0-2.761 2.239-5 5-5h28c2.761 0 5 2.239 5 5 0 2.761-2.239 5-5 5z" fill="#e7e4dd"/><circle cx="32" cy="27" fill="#c7e2fc" r="14"/><path d="m40 32c-1.105 0-2-.895-2-2v-6c0-1.105.895-2 2-2 1.105 0 2 .895 2 2v6c0 1.105-.895 2-2 2z" fill="#8892a0"/><circle cx="46" cy="53" fill="#96cc7f" r="2"/><circle cx="18" cy="53" fill="#e47c6e" r="2"/><g><path d="m50 8c-1.103 0-2-.897-2-2 0-1.104.897-2 2-2s2 .897 2 2-.898 2-2 2z" fill="#e7e4dd"/></g><path d="m34 55h-4c-1.105 0-2-.895-2-2 0-1.105.895-2 2-2h4c1.105 0 2 .895 2 2 0 1.105-.895 2-2 2z" fill="#a8b0bc"/><path d="m32 13c-7.732 0-14 6.268-14 14 0 4.59 2.219 8.652 5.632 11.205 8.224-4.884 14.306-12.985 16.522-22.57-2.297-1.651-5.108-2.635-8.154-2.635z" fill="#ebf7fe"/><g><path d="m53 1h-42c-1.654 0-3 1.346-3 3v56c0 1.653 1.346 3 3 3h42c1.654 0 3-1.347 3-3v-56c0-1.654-1.347-3-3-3zm1 3v5h-7c-.552 0-1-.449-1-1v-5h7c.551 0 1 .448 1 1zm-10 1h-24v-2h24zm-33.001-2h7v2h-8v-1c0-.552.449-1 1-1zm7 4v1c0 .552-.448 1-1 1h-7v-2zm35.001 54h-42c-.551 0-1-.449-1-1v-49h7c1.654 0 3-1.346 3-3v-1h24v1c0 1.654 1.346 3 3 3h7v49c0 .551-.449 1-1 1z"/><path d="m46 47h-28c-3.309 0-6 2.691-6 6 0 3.308 2.691 5.999 6 5.999l28-.001c3.308 0 5.999-2.691 5.999-6 0-3.308-2.691-5.998-5.999-5.998zm0 9.998-28 .001c-2.206 0-4-1.794-4-4.001 0-2.204 1.793-3.998 4-3.998h28c2.205 0 3.999 1.794 3.999 4 0 2.204-1.794 3.998-3.999 3.998z"/><path d="m32 45.999c10.477 0 19-8.522 19-18.999s-8.523-19-19-19-19 8.523-19 19 8.522 18.999 19 18.999zm0-35.999c9.374 0 17 7.626 17 17 0 9.373-7.626 16.999-17 16.999s-17-7.626-17-16.999c0-9.374 7.625-17 17-17z"/><path d="m32 41.999c8.271 0 15-6.729 15-14.999 0-8.271-6.729-15-15-15s-15 6.729-15 15 6.728 14.999 15 14.999zm0-27.999c7.168 0 13 5.832 13 13s-5.832 12.999-13 12.999-13-5.831-13-12.999 5.831-13 13-13z"/><path d="m40 33c1.654 0 2.999-1.346 2.999-3v-6c0-1.654-1.346-2.999-3-2.999s-3 1.345-3 2.999v6c.001 1.654 1.346 3 3.001 3zm-1-9.001c0-.551.448-.999 1-.999.551 0 .999.448.999.999v6c0 .552-.448 1-.999 1-.552 0-1-.448-1-1z"/><path d="m46 50c-1.654 0-3 1.346-3 3 0 1.653 1.346 2.999 3 2.999s3-1.346 3-2.999c-.001-1.654-1.347-3-3-3zm0 3.999c-.552 0-1-.448-1-.999 0-.552.448-1 1-1 .551 0 1 .448 1 1-.001.551-.449.999-1 .999z"/><path d="m18 50c-1.654 0-3 1.346-3 3 0 1.653 1.346 2.999 3 2.999s3-1.346 3-2.999c0-1.654-1.346-3-3-3zm0 3.999c-.552 0-1-.448-1-.999 0-.552.448-1 1-1 .551 0 1 .448 1 1 0 .551-.449.999-1 .999z"/><path d="m50 8c1.103 0 2-.897 2-2s-.897-2-2-2-2 .897-2 2 .896 2 2 2z"/><path d="m34 50h-4c-1.654 0-3 1.346-3 3 0 1.653 1.346 2.999 3 2.999h4c1.654 0 2.999-1.346 2.999-3.001 0-1.653-1.345-2.998-2.999-2.998zm0 3.999h-4c-.552 0-1-.448-1-1.001 0-.551.448-.998 1-.998h4c.551 0 .999.448.999 1 0 .551-.448.999-.999.999z"/></g></g></svg>