<svg id="Layer_3" enable-background="new 0 0 64 64" height="512" viewBox="0 0 64 64" width="512" xmlns="http://www.w3.org/2000/svg"><g><path d="m33 54h-27c-2.209 0-4 1.791-4 4 0 2.209 1.791 4 4 4h27z" fill="#f7d881"/><path d="m35 18c-3.842 3.842-6 9.052-6 14.485v25.515c0 2.209 1.791 4 4 4h25c2.209 0 4-1.791 4-4v-25c0-8.284-6.716-15-15-15" fill="#e47c6e"/><path d="m61.964 53.922c-.317.052-.639.078-.964.078-1.058 0-2.093-.28-3.001-.805l-.001-5c.909.525 1.944.805 3.002.805.325 0 .647-.026.964-.078z" fill="#c66b60"/><path d="m50 51.805v-5h-.002c-.206.119-.406.251-.598.395l-.8.6c-1.039.779-2.302 1.2-3.6 1.2-1.298 0-2.561-.421-3.6-1.2l-.8-.6c-1.039-.779-2.302-1.2-3.6-1.2-1.298 0-2.561.421-3.6 1.2l-.8.6c-1.039.779-2.302 1.2-3.6 1.2v5c1.298 0 2.561-.421 3.6-1.2l.8-.6c1.039-.779 2.302-1.2 3.6-1.2 1.298 0 2.561.421 3.6 1.2l.8.6c1.039.779 2.302 1.2 3.6 1.2 1.298 0 2.561-.421 3.6-1.2l.8-.6c.192-.144.392-.276.598-.395z" fill="#c66b60"/><path d="m47 18h-12v-7c0-.552.448-1 1-1h10c.552 0 1 .448 1 1z" fill="#cbc3b6"/><path d="m36 10v-6c0-1.105.895-2 2-2h6c1.105 0 2 .895 2 2v6" fill="#e7e4dd"/><path d="m57 58h-6c-.552 0-1-.448-1-1v-16c0-.552.448-1 1-1h5c1.105 0 2 .895 2 2v15c0 .552-.448 1-1 1z" fill="#fff"/><g><path d="m38 11.999h2v3.999h-2z" fill="#d5cec2"/></g><g><path d="m42 11.999h2v3.999h-2z" fill="#d5cec2"/></g><path d="m53 26c0-1.657-1.343-3-3-3s-3 1.343-3 3c-1.657 0-3 1.343-3 3s1.343 3 3 3c0 1.657 1.343 3 3 3s3-1.343 3-3c1.657 0 3-1.343 3-3s-1.343-3-3-3z" fill="#c66b60"/><g><path d="m50 30.998c-1.103 0-2-.896-2-1.999 0-1.104.897-2 2-2s2 .896 2 2c0 1.103-.897 1.999-2 1.999zm0-2.001v.002z" fill="#e7e4dd"/></g><path d="m11 24c0-1.657-1.343-3-3-3s-3 1.343-3 3c-1.657 0-3 1.343-3 3s1.343 3 3 3c0 1.657 1.343 3 3 3s3-1.343 3-3c1.657 0 3-1.343 3-3s-1.343-3-3-3z" fill="#e47c6e"/><g><path d="m8 28.998c-1.103 0-2-.896-2-1.999 0-1.104.897-2 2-2s2 .896 2 2c0 1.103-.897 1.999-2 1.999zm0-2.001v.002z" fill="#e7e4dd"/></g><path d="m24 10c0-1.657-1.343-3-3-3s-3 1.343-3 3c-1.657 0-3 1.343-3 3s1.343 3 3 3c0 1.657 1.343 3 3 3s3-1.343 3-3c1.657 0 3-1.343 3-3s-1.343-3-3-3z" fill="#e47c6e"/><g><path d="m21 14.998c-1.103 0-2-.896-2-1.999 0-1.104.897-2 2-2s2 .896 2 2c0 1.103-.897 1.999-2 1.999zm0-2.001v.002z" fill="#e7e4dd"/></g><path d="m42 34c0-1.657-1.343-3-3-3s-3 1.343-3 3c-1.657 0-3 1.343-3 3s1.343 3 3 3c0 1.657 1.343 3 3 3s3-1.343 3-3c1.657 0 3-1.343 3-3s-1.343-3-3-3z" fill="#c66b60"/><g><path d="m39 38.998c-1.103 0-2-.896-2-1.999 0-1.104.897-2 2-2s2 .896 2 2c0 1.103-.897 1.999-2 1.999zm0-2.001v.002z" fill="#e7e4dd"/></g><path d="m29 38h-23c-2.209 0-4 1.791-4 4 0 2.209 1.791 4 4 4h23" fill="#f7d881"/><path d="m29 46h-23c-2.209 0-4 1.791-4 4 0 2.209 1.791 4 4 4h23" fill="#e39854"/><g><path d="m6 40.999h23v1.999h-23z" fill="#f2c351"/></g><g><path d="m6 48.999h23v1.999h-23z" fill="#c16b3f"/></g><g><path d="m6 56.999h23v1.999h-23z" fill="#f2c351"/></g><g><path d="m48 17.05v-6.051c0-.737-.405-1.375-1-1.722v-5.278c0-1.654-1.346-3-3-3h-6c-1.654 0-3 1.346-3 3v5.278c-.595.347-1 .985-1 1.722v6.615c-3.864 4.02-6 9.277-6 14.87v4.516h-22.001c-2.756 0-4.999 2.242-4.999 5 0 1.641.806 3.088 2.031 4-1.225.912-2.031 2.358-2.031 4 0 1.641.806 3.088 2.031 4-1.225.912-2.031 2.358-2.031 4 0 2.757 2.243 4.999 5 4.999l27-.001h25c2.757 0 5-2.242 5-4.999v-25c0-8.485-6.644-15.428-15-15.949zm11 32.646c.647.193 1.318.302 2 .303v2.995c-.681-.004-1.366-.159-2-.433zm-23-38.697h10v5.999h-10zm2-8h6c.552 0 1 .448 1 1v5h-8v-5c0-.552.448-1 1-1zm-2.558 15.999h11.558v.001c7.72 0 14 6.281 14 13.999v14.996c-.681-.003-1.366-.159-2-.433v-5.563c0-1.653-1.346-2.998-3-2.998h-5c-1.103 0-2 .896-2 2v5.266c-.066.046-.136.084-.201.132l-.799.601c-1.722 1.291-4.279 1.291-6 0l-.801-.601c-2.408-1.805-5.991-1.805-8.4 0l-.799.601c-.59.443-1.28.737-2 .885v-15.401c0-5.071 1.937-9.839 5.442-13.485zm21.559 38.001h-6.001v-15.999h5c.552 0 1 .447 1 .998zm-27.001-7.082c1.153-.169 2.263-.616 3.2-1.318l.8-.601c1.72-1.289 4.281-1.289 6 0l.8.602c1.205.902 2.696 1.399 4.2 1.399 1.425 0 2.831-.459 4-1.274v2.541c-.066.046-.136.084-.201.132l-.799.601c-1.722 1.291-4.279 1.291-6 0l-.801-.601c-2.408-1.805-5.991-1.805-8.4 0l-.799.601c-.591.443-1.28.737-2 .885zm-24.001-10.917h22.001v1.999h-22v1.999h22v2.001h-22.001c-1.654 0-2.999-1.346-2.999-3.001 0-1.653 1.345-2.998 2.999-2.998zm0 8h22.001v2h-22v1.999h22v2h-22.001c-1.654 0-2.999-1.346-2.999-3.001 0-1.653 1.345-2.998 2.999-2.998zm-2.999 10.998c0-1.653 1.345-2.998 3-2.998h22v2h-22v1.999h22.101c.152.743.482 1.415.924 1.999l-23.025.001c-1.655 0-3-1.346-3-3.001zm55 3h-25c-1.654 0-3-1.346-3-3v-3.081c1.153-.169 2.263-.616 3.2-1.318l.8-.601c1.72-1.288 4.281-1.289 6 0l.8.602c1.205.902 2.696 1.399 4.2 1.399 1.424 0 2.83-.459 4-1.274v3.274c0 1.104.897 2 2 2h6c1.103 0 2-.896 2-2v-2.303c.646.193 1.318.302 2 .303v2.999c-.001 1.654-1.346 3-3 3z"/><path d="m38 11.999h2v3.999h-2z"/><path d="m42 11.999h2v3.999h-2z"/><path d="m46.102 32.897c.409 1.774 2.001 3.102 3.898 3.102 1.896 0 3.489-1.327 3.898-3.102 1.774-.408 3.102-2.001 3.102-3.897 0-1.897-1.327-3.49-3.102-3.898-.409-1.775-2.002-3.102-3.898-3.102-1.897 0-3.49 1.327-3.898 3.102-1.775.408-3.102 2.001-3.102 3.898 0 1.896 1.327 3.489 3.102 3.897zm.898-5.897c.552 0 1-.448 1-1 0-1.104.897-2 2-2s2 .896 2 2c0 .552.448 1 1 1 1.103 0 2 .896 2 2 0 1.103-.897 1.999-2 1.999-.552 0-1 .448-1 1 0 1.104-.897 2-2 2s-2-.896-2-2c0-.552-.448-1-1-1-1.103 0-2-.896-2-1.999 0-1.104.897-2 2-2z"/><path d="m50 30.999c1.103 0 2-.896 2-1.999 0-1.104-.897-2-2-2s-2 .896-2 2c0 1.103.897 1.999 2 1.999z"/><path d="m4.102 30.897c.408 1.775 2.001 3.102 3.898 3.102 1.896 0 3.489-1.327 3.898-3.102 1.774-.408 3.102-2.001 3.102-3.897 0-1.897-1.327-3.49-3.102-3.898-.409-1.775-2.002-3.102-3.898-3.102-1.897 0-3.49 1.327-3.898 3.102-1.775.408-3.102 2.001-3.102 3.898 0 1.896 1.327 3.489 3.102 3.897zm.898-5.897c.552 0 1-.448 1-1 0-1.104.897-2 2-2s2 .896 2 2c0 .552.448 1 1 1 1.103 0 2 .896 2 2 0 1.103-.897 1.999-2 1.999-.552 0-1 .448-1 1 0 1.104-.897 2-2 2s-2-.896-2-2c0-.552-.448-1-1-1-1.103 0-2-.896-2-1.999 0-1.104.897-2 2-2z"/><path d="m8 28.999c1.103 0 2-.896 2-1.999 0-1.104-.897-2-2-2s-2 .896-2 2c0 1.103.897 1.999 2 1.999z"/><path d="m17.102 16.897c.409 1.774 2.001 3.102 3.898 3.102 1.896 0 3.489-1.327 3.898-3.102 1.774-.408 3.102-2.001 3.102-3.897 0-1.897-1.327-3.49-3.102-3.898-.409-1.775-2.002-3.102-3.898-3.102-1.897 0-3.49 1.327-3.898 3.102-1.775.408-3.102 2.001-3.102 3.898 0 1.896 1.327 3.489 3.102 3.897zm.898-5.897c.552 0 1-.448 1-1 0-1.104.897-2 2-2s2 .896 2 2c0 .552.448 1 1 1 1.103 0 2 .896 2 2 0 1.103-.897 1.999-2 1.999-.552 0-1 .448-1 1 0 1.104-.897 2-2 2s-2-.896-2-2c0-.552-.448-1-1-1-1.103 0-2-.896-2-1.999 0-1.104.897-2 2-2z"/><path d="m21 14.999c1.103 0 2-.896 2-1.999 0-1.104-.897-2-2-2s-2 .896-2 2c0 1.103.897 1.999 2 1.999z"/><path d="m35.102 40.897c.409 1.774 2.001 3.102 3.898 3.102 1.896 0 3.489-1.327 3.898-3.102 1.774-.408 3.102-2.001 3.102-3.897 0-1.897-1.327-3.49-3.102-3.898-.409-1.775-2.002-3.102-3.898-3.102-1.897 0-3.49 1.327-3.898 3.102-1.775.408-3.102 2.001-3.102 3.898 0 1.896 1.327 3.489 3.102 3.897zm.898-5.897c.552 0 1-.448 1-1 0-1.104.897-2 2-2s2 .896 2 2c0 .552.448 1 1 1 1.103 0 2 .896 2 2 0 1.103-.897 1.999-2 1.999-.552 0-1 .448-1 1 0 1.104-.897 2-2 2s-2-.896-2-2c0-.552-.448-1-1-1-1.103 0-2-.896-2-1.999 0-1.104.897-2 2-2z"/><path d="m39 38.999c1.103 0 2-.896 2-1.999 0-1.104-.897-2-2-2s-2 .896-2 2c0 1.103.897 1.999 2 1.999z"/></g></g></svg>